<svg id="Vrstva_1" data-name="Vrstva 1" xmlns="http://www.w3.org/2000/svg" viewBox="0 0 1280 720"><defs><style>.cls-1,.cls-3{fill:#1d1d1b;}.cls-2,.cls-5{fill:#ec6608;}.cls-2{opacity:0.3;}.cls-3{opacity:0.2;}.cls-4{fill:none;stroke:#000;stroke-miterlimit:10;stroke-width:4px;}</style></defs><path class="cls-1" d="M198.32,534.79l20.29-20.3c8.43-8.43,17.21-9.49,23.61-3.08l.06,0a12.51,12.51,0,0,1,.88,16.55l.57.57c5.46-5.17,14.15-5.23,19.3-.08l.05,0c7.21,7.21,6.26,17.7-2.57,26.53L239.56,576Zm20.4-3.83,8.24,8.23,4.71-4.72c3.09-3.09,3.4-6.66,1-9.12l-.06-.05c-2.52-2.52-5.89-2.29-9,.8Zm15.18,15.17,9.49,9.49,5.17-5.17c3.78-3.77,4.15-7.58,1.06-10.66l-.06-.06c-2.94-2.94-6.77-2.49-10.4,1.14Z"/><path class="cls-1" d="M241,492.09l18.58-18.58c10.83-10.83,21.55-11.2,30.38-2.37l.06.06c4.83,4.83,7.12,11.86,4.92,18.17l23.46,7.81-13.54,13.54-20.35-7.31-4,4,13.84,13.83-12.12,12.12Zm36.59,2.23c3.31-3.32,3.34-7.52.23-10.64l-.06-.05c-3-3-7.32-3.09-10.63.23l-5.06,5.06,10.46,10.46Z"/><path class="cls-1" d="M284.05,449.05l29.1-29.1,9.6,9.61-17,17,6.69,6.69,15.91-15.92,8.69,8.69-15.92,15.92,6.66,6.66,17-17,9.6,9.61L325.3,490.29Z"/><path class="cls-1" d="M332.81,400.29,348,385.08l54.7,27.79L390,425.62l-10.28-6.12L367.22,432l6.12,10.29L360.59,455Zm28.07,20.92,8.06-8.06-18.41-10.92-.57.58Z"/><path class="cls-1" d="M368.28,364.82l12.12-12.11,17,17,.57-.57-4.6-29.41L406.09,327l4.75,31.9L448,367.63,433.9,381.69l-24.18-6.12,1.12,7.58,10.8,10.8-12.12,12.12Z"/><path class="cls-1" d="M428.18,346.19l-.06-.05c-13.43-13.44-13.54-29.9-.94-42.5s29-12.47,42.47,1l.06.05c13.49,13.5,13.61,29.9,1,42.51S441.67,359.68,428.18,346.19ZM457.36,317l-.05-.06c-7.21-7.2-15.27-8.4-20.24-3.43s-3.8,13.07,3.4,20.27l.06.06c7.23,7.23,15.29,8.43,20.29,3.43S464.59,324.24,457.36,317Z"/><path class="cls-1" d="M483.48,303.58l-27-27,12.12-12.12,25.78,25.78c4.32,4.32,8.83,4.61,12.78.66s3.65-8.46-.66-12.77l-25.78-25.79,12.12-12.11,27,27c9.31,9.31,8.23,22.58-2.8,33.61S492.86,313,483.48,303.58Z"/><path class="cls-1" d="M521.23,231.08l-11.46,11.46-9.6-9.61,35-35,9.6,9.61L533.35,219,565,250.6l-12.12,12.12Z"/><rect class="cls-2" x="780.12" y="-374.01" width="195.07" height="1433.02" transform="translate(499.24 -520.28) rotate(45)"/><rect class="cls-3" x="952.13" y="-144.53" width="550.74" height="1433.02" transform="translate(763.98 -700.45) rotate(45)"/><rect x="799.07" y="428.32" width="276.26" height="35.84" transform="translate(-41.04 793.4) rotate(-45)"/><circle class="cls-4" cx="645.75" cy="440.03" r="83.54"/><rect class="cls-5" x="-132.03" y="797.46" width="477.32" height="60.36" transform="translate(-554 317.81) rotate(-45)"/><rect class="cls-5" x="587.23" y="78.2" width="477.32" height="60.36" transform="translate(165.26 615.74) rotate(-45)"/><rect class="cls-1" x="506.55" y="-2.48" width="477.32" height="60.36" transform="translate(198.68 535.06) rotate(-45)"/><rect class="cls-1" x="-212.71" y="716.78" width="477.32" height="60.36" transform="translate(-520.58 237.13) rotate(-45)"/><rect class="cls-5" x="66.24" y="276.47" width="477.32" height="60.36" transform="translate(-127.53 305.41) rotate(-45)"/><rect class="cls-5" x="-293.39" y="636.1" width="477.32" height="60.36" transform="translate(-487.16 156.45) rotate(-45)"/><rect class="cls-5" x="425.87" y="-83.16" width="477.32" height="60.36" transform="translate(232.1 454.37) rotate(-45)"/><rect class="cls-4" x="-14.45" y="195.78" width="477.32" height="60.36" transform="translate(-94.11 224.73) rotate(-45)"/><rect class="cls-4" x="-374.08" y="555.41" width="477.32" height="60.36" transform="translate(-453.74 75.76) rotate(-45)"/><rect class="cls-4" x="345.18" y="-163.85" width="477.32" height="60.36" transform="translate(265.52 373.69) rotate(-45)"/><rect class="cls-4" x="-95.13" y="115.1" width="477.32" height="60.36" transform="translate(-60.69 144.04) rotate(-45)"/><rect class="cls-4" x="-175.81" y="34.42" width="477.32" height="60.36" transform="translate(-27.27 63.36) rotate(-45)"/><polygon class="cls-5" points="272.9 622.68 318.45 662.3 577.49 364.46 515.19 344.11 272.9 622.68"/><polygon class="cls-5" points="511.2 328.51 549.21 343.93 545.35 294.35 511.2 328.51"/><polygon class="cls-5" points="656.66 326.76 632.37 271.5 577.61 295.58 563.22 343.17 581.05 360 656.66 326.76"/><line class="cls-4" x1="645.75" y1="440.03" x2="918.49" y2="440.03"/></svg>