<svg id="Vrstva_1" data-name="Vrstva 1" xmlns="http://www.w3.org/2000/svg" viewBox="0 0 1280 720"><defs><style>.cls-1,.cls-6{fill:#ec6608;}.cls-1{opacity:0.3;}.cls-2,.cls-5{fill:#1d1d1b;}.cls-2,.cls-4{opacity:0.2;}.cls-3{fill:none;stroke:#000;stroke-miterlimit:10;stroke-width:4px;}</style></defs><rect class="cls-1" x="72.73" y="154.3" width="321.79" height="757.69" transform="translate(445.42 -9.05) rotate(45)"/><rect class="cls-1" x="984.92" y="229.61" width="424.67" height="783.78" transform="translate(790.13 -664.55) rotate(45)"/><rect class="cls-2" x="667.7" y="27.51" width="25.11" height="800" transform="translate(-103.05 606.23) rotate(-45)"/><polyline class="cls-3" points="389.17 152.91 954.85 718.6 1327.85 345.6"/><circle cx="271.04" cy="271.04" r="107.84"/><g class="cls-4"><path class="cls-5" d="M1040.93-162,853.36,25.54a82.12,82.12,0,0,0,0,116.15h0a82.13,82.13,0,0,0,116.14,0L1157.08-45.89ZM914.59,136.66a56.2,56.2,0,1,1,56.19-56.2A56.2,56.2,0,0,1,914.59,136.66Z"/></g><rect x="635.08" y="588.44" width="406.77" height="75.53" transform="translate(-197.21 776.29) rotate(-45)"/><rect x="987.62" y="235.89" width="406.77" height="75.53" transform="translate(155.33 922.32) rotate(-45)"/><path class="cls-6" d="M104,271A167.06,167.06,0,0,1,389.17,152.91L542.08,0H0V542.08L152.91,389.17A166.56,166.56,0,0,1,104,271Z"/><path class="cls-6" d="M389.17,152.91,152.91,389.17A167.06,167.06,0,0,0,389.17,152.91Z"/><path class="cls-6" d="M275,603.77l52-51.95c27.23-27.23,61-27.79,86.75-2l.16.16c25.78,25.78,24.81,59.13-2.41,86.35l-17.81,17.8,31.74,31.74L391.19,720Zm59.84-8.46,33.59,33.59,9.67-9.67c11.28-11.27,12.4-23.68,1.29-34.79l-.16-.16c-11.12-11.12-23.44-9.91-34.72,1.37Z"/><path class="cls-6" d="M524.57,354.16l26.5-26.5,101.57,13.77,1.61-1.61-57.67-57.67,32.22-32.22L745,366.16l-26.26,26.26L616.07,378l-1.61,1.61L673,438.17,640.8,470.39Z"/><path class="cls-6" d="M707.81,287.07l-.16-.16c-38-38-39.31-83-3.47-118.81,29.16-29.16,68.23-33.91,94.89-12.08l.89.72-33.59,33.59-.89-.56c-9.91-6.37-23.6-3.63-33.43,6.2-14.49,14.5-10.71,35,9.91,55.66l.16.16c21.11,21.1,43.74,24.24,58.72,9.26,11.12-11.11,12.81-25.21,4.19-35.76l-1.45-1.77-17.72,17.72-22.71-22.72,50.58-50.58,15.3,15.3c33,33,32.63,72.74-1.12,106.49C791,326.62,746.31,325.57,707.81,287.07Z"/><path class="cls-6" d="M503.93,404.61a86.94,86.94,0,1,0,86.95,86.94A86.95,86.95,0,0,0,503.93,404.61ZM474.55,520.94a41.56,41.56,0,1,1,58.77-58.77Z"/><circle class="cls-3" cx="271.04" cy="271.04" r="232.9"/><circle class="cls-3" cx="674.18" cy="438.09" r="24.77"/></svg>